:SAMPLES-PER-SECOND 30
:FULLY-SPECIFIED
:DEGREES
316
root  -3.96885 40.7724 -0.73389 -1.63263 -64.3083 5.29269
RightUpLeg  6.08131 -3.4489 -1.49779
RightLeg  -5.80753 -43.9148 4.76935
RightFoot  -2.92216 -0.314728 3.98289
RightToes  -3.10096e-008 1.75238e-005 3.56266e-009
Spine  -1.42221 8.54225 8.38675
Spine1  2.33778 11.0883 -13.0858
HEad  -6.61707 -28.41 15.2553
LeftShoulder1  4.06688 -8.10399 -29.0056
LeftArm  -22.1426 25.6691 -46.6249
LeftForeArm  25.7712 -34.3917 -6.17828
LeftHand  0.187048 -6.94889 -1.40802
RightShoulder  3.44781 9.04225 21.1611
RightArm  -23.2736 72.8022 44.1352
RightForeArm  -41.978 66.8826 31.6605
RightHand  0.504707 4.73123 5.47262
LeftUpLeg  -4.56786 -2.08383 0.454529
LeftLeg  0.961339 -10.248 0.424544
LeftFoot  0.633766 0.206336 -1.99849
LeftToes  4.7633e-008 1.48299e-008 1.30754e-009
317
root  -3.93377 40.762 -0.796063 -1.19717 -62.7368 5.16982
RightUpLeg  5.7966 -3.4724 -1.34996
RightLeg  -5.90699 -45.4308 5.01319
RightFoot  -3.00356 -0.315838 4.01682
RightToes  -3.10096e-008 1.75238e-005 3.56266e-009
Spine  -0.0831874 9.0362 9.20004
Spine1  1.12514 11.7391 -14.419
HEad  -7.43278 -30.1756 17.4963
LeftShoulder1  3.97602 -7.90329 -28.8167
LeftArm  -19.8296 24.0379 -47.241
LeftForeArm  25.8283 -36.4987 -6.73625
LeftHand  0.150583 -6.47513 -1.12897
RightShoulder  3.64713 9.68926 21.3401
RightArm  -18.783 74.5225 49.2212
RightForeArm  -50.9265 60.818 23.9399
RightHand  0.3638 3.77251 4.34689
LeftUpLeg  -5.28327 -2.41301 0.340068
LeftLeg  1.11796 -11.4696 0.529885
LeftFoot  0.898412 0.20873 -2.02368
LeftToes  4.7633e-008 1.48299e-008 1.30754e-009
318
root  -3.90906 40.7574 -0.856109 -0.849976 -61.3133 5.06123
RightUpLeg  5.71219 -3.44 -1.17246
RightLeg  -6.39898 -46.8637 5.4749
RightFoot  -2.93276 -0.313873 4.00316
RightToes  -3.10096e-008 1.75238e-005 3.56266e-009
Spine  1.39751 9.8992 10.0471
Spine1  -0.110239 12.7424 -15.658
HEad  -8.59936 -31.6123 19.8023
LeftShoulder1  4.20127 -8.36389 -29.3711
LeftArm  -17.3906 22.7868 -47.0504
LeftForeArm  25.9606 -38.3031 -7.22815
LeftHand  0.153643 -6.55223 -1.1581
RightShoulder  3.60018 9.75335 20.798
RightArm  -16.0536 75.8365 53.0393
RightForeArm  -58.9102 52.7837 17.7547
RightHand  0.220521 3.09644 2.79433
LeftUpLeg  -5.80261 -2.6939 0.251351
LeftLeg  1.11411 -12.5305 0.63446
LeftFoot  1.23383 0.206699 -1.97473
LeftToes  4.7633e-008 1.48299e-008 1.30754e-009
319
root  -3.87376 40.7446 -0.898981 -0.413071 -59.8501 4.94946
RightUpLeg  5.46442 -3.45661 -1.03928
RightLeg  -6.69474 -48.2541 5.83494
RightFoot  -2.91126 -0.317408 4.07436
RightToes  -3.10096e-008 1.75238e-005 3.56266e-009
Spine  1.71989 10.4183 10.6619
Spine1  0.292388 13.3848 -15.9787
HEad  -10.2749 -32.7783 22.035
LeftShoulder1  4.23844 -8.23821 -30.1886
LeftArm  -15.813 21.4914 -47.1868
LeftForeArm  26.5995 -39.9187 -7.68339
LeftHand  0.0771288 -7.0007 -0.366955
RightShoulder  3.39328 9.9311 18.8804
RightArm  -13.7683 78.1239 57.8691
RightForeArm  -64.8782 42.9134 12.9457
RightHand  0.190997 2.44129 2.6405
LeftUpLeg  -6.54596 -3.11478 0.0864281
LeftLeg  1.36894 -13.5447 0.767943
LeftFoot  1.42492 0.206315 -1.91949
LeftToes  4.7633e-008 1.48299e-008 1.30754e-009
320
root  -3.84558 40.736 -0.934313 -0.0823822 -58.6139 4.84076
RightUpLeg  5.31147 -3.49906 -0.941901
RightLeg  -6.995 -49.3946 6.22224
RightFoot  -2.88735 -0.315057 4.05298
RightToes  -3.10096e-008 1.75238e-005 3.56266e-009
Spine  0.694027 10.1616 8.61096
Spine1  2.82997 12.4298 -10.3811
HEad  -11.3785 -30.3407 20.341
LeftShoulder1  4.26733 -6.89176 -34.9766
LeftArm  -14.6795 21.0595 -45.3371
LeftForeArm  25.3894 -42.8909 -8.68135
LeftHand  0.147675 -6.72654 -1.06349
RightShoulder  2.57128 11.2041 10.1536
RightArm  -4.84174 79.8045 75.3256
RightForeArm  -67.5201 32.4746 9.46807
RightHand  0.0968125 1.92765 1.35237
LeftUpLeg  -7.11676 -3.37129 -0.00914415
LeftLeg  1.58087 -14.4209 0.807973
LeftFoot  1.64663 0.226382 -2.07674
LeftToes  4.7633e-008 1.48299e-008 1.30754e-009
321
root  -3.83648 40.7265 -0.974668 -0.072937 -57.5508 4.7879
RightUpLeg  5.43688 -3.50731 -0.824926
RightLeg  -7.21883 -50.4086 6.45715
RightFoot  -2.93361 -0.318779 4.124
RightToes  -3.10096e-008 1.75238e-005 3.56266e-009
Spine  1.83224 11.0023 9.73868
Spine1  1.90575 13.6274 -12.4465
HEad  -13.1851 -32.8102 23.8083
LeftShoulder1  4.3438 -7.28164 -34.2931
LeftArm  -13.0653 20.7738 -45.316
LeftForeArm  25.1551 -42.4977 -8.57944
LeftHand  0.141629 -6.87228 -0.976112
RightShoulder  2.7296 11.4488 11.1065
RightArm  -10.4268 80.5744 68.8355
RightForeArm  -70.6197 24.2348 7.07272
RightHand  -0.061481 1.27919 -1.16916
LeftUpLeg  -7.29022 -3.4367 -0.0652247
LeftLeg  1.68404 -15.3159 0.752419
LeftFoot  1.8224 0.224744 -2.0442
LeftToes  4.7633e-008 1.48299e-008 1.30754e-009
322
root  -3.83362 40.7144 -0.995279 -0.082489 -56.3635 4.66953
RightUpLeg  5.51514 -3.57985 -0.706285
RightLeg  -6.91684 -51.5174 6.3136
RightFoot  -3.06269 -0.327787 4.27455
RightToes  -3.10096e-008 1.75238e-005 3.56266e-009
Spine  3.50738 12.0477 12.2336
Spine1  0.528208 15.5474 -17.4534
HEad  -17.7178 -35.9479 30.5521
LeftShoulder1  4.27746 -7.98734 -31.2231
LeftArm  -11.5144 20.1855 -46.5339
LeftForeArm  25.8399 -40.771 -7.97713
LeftHand  0.272105 -7.47241 -2.09006
RightShoulder  3.1111 10.4637 15.5049
RightArm  -17.9839 80.3045 57.6162
RightForeArm  -71.5546 19.8755 4.96117
RightHand  -0.149356 1.73483 -2.60637
LeftUpLeg  -7.36113 -3.55967 -0.152805
LeftLeg  1.78846 -16.3141 0.759533
LeftFoot  1.91018 0.199144 -1.81375
LeftToes  4.7633e-008 1.48299e-008 1.30754e-009
323
root  -3.84793 40.7076 -1.02061 -0.171509 -55.2399 4.63843
RightUpLeg  5.73336 -3.71235 -0.66976
RightLeg  -6.98489 -52.4951 6.53444
RightFoot  -3.16621 -0.338625 4.45031
RightToes  -3.10096e-008 1.75238e-005 3.56266e-009
Spine  4.18695 12.7612 12.4193
Spine1  0.215442 16.5094 -18.6562
HEad  -23.1895 -37.6566 36.2329
LeftShoulder1  4.30472 -8.39448 -30.1666
LeftArm  -10.4352 20.3392 -46.6067
LeftForeArm  25.6914 -39.7627 -7.67816
LeftHand  0.259897 -7.17137 -2.03713
RightShoulder  3.43312 10.2742 18.3904
RightArm  -25.9125 78.8015 47.8726
RightForeArm  -70.3015 19.349 4.83553
RightHand  -0.153902 2.55054 -2.44921
LeftUpLeg  -7.36749 -3.77759 -0.295892
LeftLeg  1.81531 -17.1617 0.889745
LeftFoot  1.95287 0.236185 -2.1297
LeftToes  4.7633e-008 1.48299e-008 1.30754e-009
324
root  -3.86582 40.6965 -1.0198 -0.14473 -54.2193 4.47481
RightUpLeg  6.00391 -3.91919 -0.649678
RightLeg  -7.15351 -53.2482 6.9516
RightFoot  -3.33115 -0.342765 4.51823
RightToes  -3.10096e-008 1.75238e-005 3.56266e-009
Spine  3.78885 12.8703 11.3782
Spine1  1.04001 16.4521 -17.023
HEad  -26.8392 -38.0181 38.8368
LeftShoulder1  4.35459 -8.39044 -30.6092
LeftArm  -10.6926 21.4522 -46.0122
LeftForeArm  24.1902 -39.2026 -7.607
LeftHand  0.29384 -6.96688 -2.41446
RightShoulder  3.57222 10.455 19.1269
RightArm  -27.2477 77.8189 46.4138
RightForeArm  -69.4471 20.2458 5.39297
RightHand  -0.0899681 1.98796 -1.58526
LeftUpLeg  -7.42609 -3.84417 -0.334893
LeftLeg  2.03579 -18.1197 0.879994
LeftFoot  1.75179 0.276222 -2.49832
LeftToes  4.7633e-008 1.48299e-008 1.30754e-009
325
root  -3.87524 40.6875 -1.02061 -0.0682831 -53.5955 4.27879
RightUpLeg  6.2078 -3.82379 -0.445234
RightLeg  -7.43247 -53.9641 7.17493
RightFoot  -3.33131 -0.333186 4.36855
RightToes  -3.10096e-008 1.75238e-005 3.56266e-009
Spine  3.37153 12.8441 10.6
Spine1  1.7887 16.3045 -15.8074
HEad  -28.5567 -37.9534 39.928
LeftShoulder1  4.36596 -8.32532 -30.9071
LeftArm  -11.8915 22.5417 -45.7335
LeftForeArm  23.5097 -38.0549 -7.31565
LeftHand  0.375076 -6.27769 -3.37841
RightShoulder  3.54611 10.3089 19.2141
RightArm  -26.6912 77.123 45.1661
RightForeArm  -69.494 21.5163 6.27521
RightHand  -0.0359829 1.5743 -0.751412
LeftUpLeg  -7.41363 -3.80382 -0.292845
LeftLeg  2.12714 -18.8088 0.87805
LeftFoot  1.62691 0.269922 -2.47186
LeftToes  4.7633e-008 1.48299e-008 1.30754e-009
